<svg width="512" height="512" viewBox="0 0 512 512" fill="none" xmlns="http://www.w3.org/2000/svg">
<path fill-rule="evenodd" clip-rule="evenodd" d="M248.559 128.696C245.354 127.473 242.349 125.57 239.766 122.987C229.954 113.175 229.954 97.2668 239.766 87.4548C249.578 77.6427 265.486 77.6427 275.299 87.4548C282.875 95.0313 284.601 106.243 280.477 115.476L323.419 158.418C332.652 154.293 343.863 156.02 351.44 163.596C361.252 173.408 361.252 189.317 351.44 199.129C341.628 208.941 325.719 208.941 315.907 199.129C315.318 198.539 314.764 197.928 314.245 197.297L285.908 206.743L390.387 241.569C390.905 240.938 391.459 240.327 392.049 239.737C401.861 229.925 417.769 229.925 427.581 239.737C437.393 249.55 437.393 265.458 427.581 275.27C417.769 285.082 401.861 285.082 392.049 275.27C391.459 274.681 390.905 274.069 390.387 273.439L285.908 308.265L314.245 317.71C314.764 317.08 315.318 316.468 315.907 315.879C325.719 306.067 341.628 306.067 351.44 315.879C361.252 325.691 361.252 341.599 351.44 351.411C341.628 361.224 325.719 361.224 315.907 351.411C311.279 346.783 308.834 340.798 308.572 334.737L266.506 320.715L266.506 386.311C269.711 387.535 272.716 389.437 275.299 392.02C285.111 401.832 285.111 417.741 275.299 427.553C265.486 437.365 249.578 437.365 239.766 427.553C232.189 419.976 230.463 408.765 234.587 399.532L191.645 356.59C182.413 360.714 171.201 358.988 163.624 351.411C153.812 341.599 153.812 325.691 163.624 315.879C173.437 306.067 189.345 306.067 199.157 315.879C199.746 316.468 200.3 317.08 200.819 317.71L229.156 308.265L124.678 273.439C124.159 274.069 123.605 274.681 123.016 275.27C113.204 285.082 97.2951 285.082 87.4831 275.27C77.671 265.458 77.671 249.55 87.4831 239.737C97.2951 229.925 113.204 229.925 123.016 239.737C123.605 240.327 124.159 240.938 124.678 241.569L229.156 206.743L200.819 197.297C200.301 197.928 199.747 198.539 199.157 199.129C189.345 208.941 173.437 208.941 163.624 199.129C153.812 189.317 153.812 173.408 163.624 163.596C173.437 153.784 189.345 153.784 199.157 163.596C203.785 168.225 206.231 174.209 206.493 180.271L248.559 194.293V128.696ZM204.336 343.9C205.638 340.984 206.357 337.87 206.493 334.737L248.559 320.715V386.312C248.128 386.476 247.701 386.653 247.278 386.842L204.336 343.9ZM310.729 171.108C309.426 174.024 308.707 177.137 308.572 180.271L266.506 194.293V128.696C266.936 128.532 267.364 128.355 267.787 128.166L310.729 171.108ZM248.559 234.029V219.193L133.626 257.504L248.559 295.815V280.979C245.354 279.756 242.349 277.853 239.766 275.27C229.954 265.458 229.954 249.549 239.766 239.737C242.349 237.155 245.354 235.252 248.559 234.029ZM266.506 234.029V219.193L381.439 257.504L266.506 295.815V280.979C269.711 279.756 272.716 277.853 275.299 275.27C285.111 265.458 285.111 249.549 275.299 239.737C272.716 237.155 269.711 235.252 266.506 234.029Z" fill="#B2B2B2"/>
</svg>
